<svg xmlns="http://www.w3.org/2000/svg" version="1.1" xmlns:xlink="http://www.w3.org/1999/xlink" xmlns:svgjs="http://svgjs.com/svgjs" width="1440" height="560" preserveAspectRatio="none" viewBox="0 0 1440 560"><g mask="url(&quot;#SvgjsMask1077&quot;)" fill="none"><rect width="1440" height="560" x="0" y="0" fill="rgba(13, 19, 35, 1)"></rect><path d="M0,668.791C121.493,645.184,176.939,504.184,282.586,439.713C392.044,372.916,551.414,389.971,626.832,286.265C704.015,180.132,723.83,24.14,672.696,-96.719C622.786,-214.683,452.518,-222.642,370.051,-320.651C285.568,-421.056,317.603,-617.4,195.073,-664.357C75.49,-710.184,-42.869,-586.442,-153.009,-521.102C-239.736,-469.651,-306.864,-399.228,-375.838,-325.666C-447.809,-248.908,-523.844,-177.963,-565.391,-81.291C-616.719,38.139,-680.553,169.012,-641.757,293.081C-602.219,419.523,-477.562,498.271,-363.234,565.203C-252.333,630.129,-126.149,693.303,0,668.791" fill="#0a0e1a"></path><path d="M1440 942.137C1525.359 936.896 1618.478 995.877 1691.212 950.894 1763.901 905.938 1755.676 797.979 1795.425 722.317 1838.354 640.602 1926.078 580.968 1933.8690000000001 488.992 1942.2069999999999 390.55600000000004 1902.87 289.636 1838.417 214.76999999999998 1773.876 139.80200000000002 1679.505 89.86599999999999 1581.149 79.291 1489.514 69.43900000000002 1408.542 126.678 1322.339 159.284 1243.377 189.151 1163.341 210.702 1096.702 262.531 1018.351 323.469 916.104 384.473 905.861 483.202 895.589 582.217 1000.9739999999999 651.225 1047.231 739.371 1090.232 821.3109999999999 1085.923 940.557 1168.15 983.0070000000001 1251.258 1025.911 1346.647 947.8679999999999 1440 942.137" fill="#10182c"></path></g><defs><mask id="SvgjsMask1077"><rect width="1440" height="560" fill="#ffffff"></rect></mask></defs></svg>